<svg xmlns="http://www.w3.org/2000/svg" width="430" height="430" style="width:100%;height:100%;transform:translate3d(0,0,0);content-visibility:visible" viewBox="0 0 430 430"><defs><mask id="ah" mask-type="alpha"><g filter="url(#a)"><path fill="#fff" d="M0 0h430v430H0z" opacity="0"/><use xmlns:ns1="http://www.w3.org/1999/xlink" ns1:href="#b"/></g></mask><mask id="ag" mask-type="alpha"><use xmlns:ns2="http://www.w3.org/1999/xlink" ns2:href="#c"/></mask><mask id="af" mask-type="alpha"><g filter="url(#d)"><path fill="#fff" d="M0 0h430v430H0z" opacity="0"/><use xmlns:ns3="http://www.w3.org/1999/xlink" ns3:href="#e"/></g></mask><mask id="ad" mask-type="alpha"><use xmlns:ns4="http://www.w3.org/1999/xlink" ns4:href="#f"/></mask><mask id="ab" mask-type="alpha"><use xmlns:ns5="http://www.w3.org/1999/xlink" ns5:href="#g"/></mask><mask id="aa" mask-type="alpha"><g filter="url(#h)"><path fill="#fff" d="M0 0h430v430H0z" opacity="0"/><use xmlns:ns6="http://www.w3.org/1999/xlink" ns6:href="#i"/></g></mask><mask id="Y" mask-type="alpha"><use xmlns:ns7="http://www.w3.org/1999/xlink" ns7:href="#j"/></mask><mask id="W" mask-type="alpha"><g filter="url(#k)"><path fill="#fff" d="M0 0h430v430H0z" opacity="0"/><use xmlns:ns8="http://www.w3.org/1999/xlink" ns8:href="#l"/></g></mask><mask id="I" mask-type="alpha"><use xmlns:ns9="http://www.w3.org/1999/xlink" ns9:href="#m"/></mask><mask id="H" mask-type="alpha"><use xmlns:ns10="http://www.w3.org/1999/xlink" ns10:href="#n"/></mask><mask id="F" mask-type="alpha"><g filter="url(#o)"><path fill="#fff" d="M0 0h430v430H0z" opacity="0"/><use xmlns:ns11="http://www.w3.org/1999/xlink" ns11:href="#p"/></g></mask><mask id="D" mask-type="alpha"><use xmlns:ns12="http://www.w3.org/1999/xlink" ns12:href="#q"/></mask><mask id="C" mask-type="alpha"><g filter="url(#r)"><path fill="#fff" d="M0 0h430v430H0z" opacity="0"/><use xmlns:ns13="http://www.w3.org/1999/xlink" ns13:href="#s"/></g></mask><mask id="V" mask-type="alpha"><use xmlns:ns14="http://www.w3.org/1999/xlink" ns14:href="#t"/></mask><mask id="U" mask-type="alpha"><use xmlns:ns15="http://www.w3.org/1999/xlink" ns15:href="#u"/></mask><mask id="T" mask-type="alpha"><use xmlns:ns16="http://www.w3.org/1999/xlink" ns16:href="#v"/></mask><mask id="R" mask-type="alpha"><g filter="url(#w)"><path fill="#fff" d="M0 0h430v430H0z" opacity="0"/><use xmlns:ns17="http://www.w3.org/1999/xlink" ns17:href="#x"/></g></mask><mask id="P" mask-type="alpha"><use xmlns:ns18="http://www.w3.org/1999/xlink" ns18:href="#y"/></mask><mask id="O" mask-type="alpha"><g filter="url(#z)"><path fill="#fff" d="M0 0h430v430H0z" opacity="0"/><use xmlns:ns19="http://www.w3.org/1999/xlink" ns19:href="#A"/></g></mask><clipPath id="L"><path d="M0 0h430v430H0z"/></clipPath><clipPath id="ac"><path d="M0 0h430v430H0z"/></clipPath><clipPath id="ae"><path d="M0 0h430v430H0z"/></clipPath><clipPath id="X"><path d="M0 0h430v430H0z"/></clipPath><clipPath id="Z"><path d="M0 0h430v430H0z"/></clipPath><clipPath id="M"><path d="M0 0h430v430H0z"/></clipPath><clipPath id="B"><path d="M0 0h430v430H0z"/></clipPath><clipPath id="G"><path d="M0 0h430v430H0z"/></clipPath><clipPath id="E"><path d="M0 0h430v430H0z"/></clipPath><clipPath id="J"><path d="M0 0h430v430H0z"/></clipPath><clipPath id="N"><path d="M0 0h430v430H0z"/></clipPath><clipPath id="S"><path d="M0 0h430v430H0z"/></clipPath><clipPath id="Q"><path d="M0 0h430v430H0z"/></clipPath><clipPath id="K"><path d="M0 0h430v430H0z"/></clipPath><g id="b" style="display:none"><path/><path fill-opacity="0" style="mix-blend-mode:soft-light"/></g><g id="e" style="display:none"><path/><path fill-opacity="0" style="mix-blend-mode:soft-light"/></g><g id="f" style="display:none"><path/><path style="mix-blend-mode:multiply"/></g><g id="t" clip-path="url(#B)" style="display:none"><g style="display:none"><path class="primary"/><path class="primary" style="mix-blend-mode:multiply"/></g><path class="primary" style="mix-blend-mode:multiply;display:none"/><g style="display:none"><path class="primary"/><path class="primary" style="mix-blend-mode:multiply"/></g><path class="primary" style="mix-blend-mode:multiply;display:none"/><g style="display:none"><path class="primary"/><path class="primary" style="mix-blend-mode:multiply"/></g><path class="primary" style="mix-blend-mode:multiply;display:none"/><g mask="url(#C)" style="display:none"><path class="primary"/><path class="primary" style="mix-blend-mode:multiply"/></g><path class="primary" style="mix-blend-mode:multiply;display:none"/><g fill-opacity="0" stroke-linecap="round" stroke-linejoin="round" style="display:none"><path class="quaternary"/><path class="quaternary" style="mix-blend-mode:multiply"/><path class="tertiary"/></g><g style="display:none"><path class="quaternary"/><path class="quaternary" style="mix-blend-mode:multiply"/></g><g mask="url(#D)" style="display:none"><path class="quaternary"/></g><g clip-path="url(#E)" mask="url(#F)" style="display:none"><path class="primary" style="display:none"/><path class="primary" style="mix-blend-mode:multiply;display:none"/><path class="primary" style="display:none"/><path class="primary" style="mix-blend-mode:multiply;display:none"/><path class="primary" style="display:none"/><path class="primary" style="mix-blend-mode:multiply;display:none"/><path class="primary" style="display:none"/><path class="primary" style="mix-blend-mode:multiply;display:none"/></g><g clip-path="url(#G)" mask="url(#F)" style="display:none"><path class="primary" style="display:none"/><path class="primary" style="mix-blend-mode:multiply;display:none"/><path class="primary" style="display:none"/><path class="primary" style="mix-blend-mode:multiply;display:none"/><path class="primary" style="display:none"/><path class="primary" style="mix-blend-mode:multiply;display:none"/><path class="primary" style="display:none"/><path class="primary" style="mix-blend-mode:multiply;display:none"/></g><path class="primary" style="display:none"/><path class="primary" style="mix-blend-mode:multiply;display:none"/><g style="display:none"><path fill-opacity="0" stroke-linecap="round" stroke-linejoin="round" class="tertiary"/><path class="tertiary"/></g><g mask="url(#H)" style="display:none"><path fill-opacity="0" stroke-linecap="round" stroke-linejoin="round" class="quaternary"/><path class="quaternary"/></g><g mask="url(#I)" style="display:none"><path class="quaternary"/></g><g style="display:none"><path class="tertiary"/><path fill-opacity="0" stroke-linecap="round" stroke-linejoin="round" class="tertiary"/></g><path fill-opacity="0" stroke-linecap="round" stroke-linejoin="round" class="tertiary" style="display:none"/></g><g id="m" style="display:none"><path/><path fill-opacity="0"/></g><g id="n" style="display:none"><path/><path fill-opacity="0"/></g><g id="p" style="display:none"><path/><path fill-opacity="0"/></g><g id="s" clip-path="url(#J)" style="display:none"><g style="display:none"><path/><path fill-opacity="0"/></g><path style="display:none"/></g><g id="u" style="display:none"><path/><path fill-opacity="0"/></g><g id="v" style="display:none"><path/><path fill-opacity="0"/></g><g id="x" style="display:none"><path/><path fill-opacity="0"/></g><g id="A" clip-path="url(#K)" style="display:none"><g style="display:none"><path/><path fill-opacity="0"/></g><path style="display:none"/></g><filter id="a" width="100%" height="100%" x="0%" y="0%" filterUnits="objectBoundingBox"><feComponentTransfer in="SourceGraphic"><feFuncA tableValues="1.0 0.0" type="table"/></feComponentTransfer></filter><filter id="d" width="100%" height="100%" x="0%" y="0%" filterUnits="objectBoundingBox"><feComponentTransfer in="SourceGraphic"><feFuncA tableValues="1.0 0.0" type="table"/></feComponentTransfer></filter><filter id="h" width="100%" height="100%" x="0%" y="0%" filterUnits="objectBoundingBox"><feComponentTransfer in="SourceGraphic"><feFuncA tableValues="1.0 0.0" type="table"/></feComponentTransfer></filter><filter id="k" width="100%" height="100%" x="0%" y="0%" filterUnits="objectBoundingBox"><feComponentTransfer in="SourceGraphic"><feFuncA tableValues="1.0 0.0" type="table"/></feComponentTransfer></filter><filter id="o" width="100%" height="100%" x="0%" y="0%" filterUnits="objectBoundingBox"><feComponentTransfer in="SourceGraphic"><feFuncA tableValues="1.0 0.0" type="table"/></feComponentTransfer></filter><filter id="r" width="100%" height="100%" x="0%" y="0%" filterUnits="objectBoundingBox"><feComponentTransfer in="SourceGraphic"><feFuncA tableValues="1.0 0.0" type="table"/></feComponentTransfer></filter><filter id="w" width="100%" height="100%" x="0%" y="0%" filterUnits="objectBoundingBox"><feComponentTransfer in="SourceGraphic"><feFuncA tableValues="1.0 0.0" type="table"/></feComponentTransfer></filter><filter id="z" width="100%" height="100%" x="0%" y="0%" filterUnits="objectBoundingBox"><feComponentTransfer in="SourceGraphic"><feFuncA tableValues="1.0 0.0" type="table"/></feComponentTransfer></filter><path id="g" fill="red" d="M218.806 199c-21.808 0-35.202 34.043-30.964 64.5 6.818 49 11.091 56.5 32.899 56.5 21.807 0 27.259-22.566 31.534-53.5 5.114-37-11.662-67.5-33.469-67.5zM218 44c-28.167 0-51 22.833-51 51s22.833 51 51 51 51-22.833 51-51-22.833-51-51-51z" style="display:block"/><path id="c" style="display:none"/><path id="i" fill="red" d="M3.5-7.25c-16.23 0-31.52 1.721-44.928 4.759-30.452 6.9-51.197 20.597-51.197 36.366C-92.625 56.588-49.588 207.5 3.5 207.5S99.625 56.588 99.625 33.875c0-15.963-21.259-29.803-52.326-36.618C34.164-5.624 19.276-7.25 3.5-7.25z" style="display:block" transform="translate(214.5 188.75)"/><path id="j" fill="red" d="M133.867 212.348c.133 8.152 0 5.135 0 5.135v8.129c0 7.94 6.265 12.388 14.227 12.388h22.74v-37.839c9.982-5.324 19.058-12.104 26.986-20.032 15.443-15.443 26.503-35.246 31.161-57.39h5.071c10.624 0 19.253-8.628 19.253-19.252V84.533c0-10.624-8.629-19.253-19.253-19.253h-7.618c-8.307-27.192-26.457-50.092-50.299-64.571 0 0-1.193-25.451 15.226-43.847 1.942-2.176 4.478-3.925 3.846-5.115-.895-1.685-3.429-1.598-6.517-1.705-23.639-.816-46.832 5.344-60.674 33.961l-46.995.115c-31.712 0-60.418 12.85-81.185 33.617-20.79 20.79-33.64 49.496-33.64 81.208 0 41.947 22.488 78.639 56.082 98.671v25.998c0 7.94 6.448 14.388 14.41 14.388h22.74l-.071-12.297s.643-6.703 0-13.355C89.75 215.5 132 212.125 132 212.125" style="display:block" transform="translate(121 143.5)"/><path id="l" style="mix-blend-mode:multiply;display:none"/><path id="q" style="display:none"/><path id="y" style="display:none"/></defs><g clip-path="url(#L)"><g clip-path="url(#M)" style="display:none"><g clip-path="url(#N)" style="display:none"><g style="display:none"><path class="primary"/><path class="primary" style="mix-blend-mode:multiply"/></g><path class="primary" style="mix-blend-mode:multiply;display:none"/><g style="display:none"><path class="primary"/><path class="primary" style="mix-blend-mode:multiply"/></g><path class="primary" style="mix-blend-mode:multiply;display:none"/><g style="display:none"><path class="primary"/><path class="primary" style="mix-blend-mode:multiply"/></g><path class="primary" style="mix-blend-mode:multiply;display:none"/><g mask="url(#O)" style="display:none"><path class="primary"/><path class="primary" style="mix-blend-mode:multiply"/></g><path class="primary" style="mix-blend-mode:multiply;display:none"/><g fill="none" style="display:none"><path class="quaternary"/><path class="quaternary" style="mix-blend-mode:multiply"/><path class="tertiary"/></g><g style="display:none"><path class="quaternary"/><path class="quaternary" style="mix-blend-mode:multiply"/></g><g mask="url(#P)" style="display:none"><path class="quaternary"/></g><g clip-path="url(#Q)" mask="url(#R)" style="display:none"><path class="primary" style="display:none"/><path class="primary" style="mix-blend-mode:multiply;display:none"/><path class="primary" style="display:none"/><path class="primary" style="mix-blend-mode:multiply;display:none"/><path class="primary" style="display:none"/><path class="primary" style="mix-blend-mode:multiply;display:none"/><path class="primary" style="display:none"/><path class="primary" style="mix-blend-mode:multiply;display:none"/></g><g clip-path="url(#S)" mask="url(#R)" style="display:none"><path class="primary" style="display:none"/><path class="primary" style="mix-blend-mode:multiply;display:none"/><path class="primary" style="display:none"/><path class="primary" style="mix-blend-mode:multiply;display:none"/><path class="primary" style="display:none"/><path class="primary" style="mix-blend-mode:multiply;display:none"/><path class="primary" style="display:none"/><path class="primary" style="mix-blend-mode:multiply;display:none"/></g><path class="primary" style="display:none"/><path class="primary" style="mix-blend-mode:multiply;display:none"/><g style="display:none"><path fill="none" class="tertiary"/><path class="tertiary"/></g><g mask="url(#T)" style="display:none"><path fill="none" class="quaternary"/><path class="quaternary"/></g><g mask="url(#U)" style="display:none"><path class="quaternary"/></g><g style="display:none"><path class="tertiary"/><path fill="none" class="tertiary"/></g><path fill="none" class="tertiary" style="display:none"/></g><g mask="url(#V)" style="mix-blend-mode:multiply;display:none"><path class="primary"/></g><path class="primary" style="display:none"/><path class="primary" style="mix-blend-mode:multiply;display:none"/><g style="display:none"><path class="primary"/><path class="primary" style="mix-blend-mode:multiply"/></g><path class="primary" style="mix-blend-mode:multiply;display:none"/><path class="primary" style="display:none"/><g mask="url(#W)" style="mix-blend-mode:multiply;display:none"><path class="primary"/></g><path fill="none" class="secondary" style="display:none"/></g><g clip-path="url(#X)" style="display:block"><g fill="none" stroke="#F18AA8" stroke-linecap="round" stroke-linejoin="round" stroke-width="7" style="display:block"><path d="M98.158 208.926H72.227s-25.646-.866-25.646-27.574c0-23.961 33.256-23.108 33.256-2.235 0 17.399-22.862 16.946-22.862 16.946H32.344" class="quaternary"/><path stroke-opacity=".5" d="M-22.842 65.426h-25.931s-25.646-.866-25.646-27.574c0-23.961 33.256-23.108 33.256-2.235 0 17.399-22.862 16.946-22.862 16.946h-24.631" class="quaternary" style="mix-blend-mode:multiply" transform="translate(121 143.5)"/></g><g fill="#F18AA8" style="display:block"><path d="M254.867 355.848c.133 8.152 0 5.135 0 5.135v8.129c0 7.94 6.265 12.388 14.227 12.388h22.74v-37.839c9.982-5.324 19.058-12.104 26.986-20.032 15.443-15.443 26.503-35.246 31.161-57.39h5.071c10.624 0 19.253-8.628 19.253-19.252v-18.954c0-10.624-8.629-19.253-19.253-19.253h-7.618c-8.307-27.192-26.457-50.092-50.299-64.571 0 0-1.193-25.451 15.226-43.847 1.942-2.176 4.478-3.925 3.846-5.115-.895-1.685-3.429-1.598-6.517-1.705-23.639-.816-46.832 5.344-60.674 33.961l-46.995.115c-31.712 0-60.418 12.85-81.185 33.617-20.79 20.79-33.64 49.496-33.64 81.208 0 41.947 22.488 78.639 56.082 98.671v25.998c0 7.94 6.448 14.388 14.41 14.388h22.74l-.071-12.297s.643-6.703 0-13.355c29.812 2.58 43.398 1.703 72.076.133" class="quaternary"/><path fill-opacity=".5" d="M133.867 212.348c.133 8.152 0 5.135 0 5.135v8.129c0 7.94 6.265 12.388 14.227 12.388h22.74v-37.839c9.982-5.324 19.058-12.104 26.986-20.032 15.443-15.443 26.503-35.246 31.161-57.39h5.071c10.624 0 19.253-8.628 19.253-19.252V84.533c0-10.624-8.629-19.253-19.253-19.253h-7.618c-8.307-27.192-26.457-50.092-50.299-64.571 0 0-1.193-25.451 15.226-43.847 1.942-2.176 4.478-3.925 3.846-5.115-.895-1.685-3.429-1.598-6.517-1.705-23.639-.816-46.832 5.344-60.674 33.961l-46.995.115c-31.712 0-60.418 12.85-81.185 33.617-20.79 20.79-33.64 49.496-33.64 81.208 0 41.947 22.488 78.639 56.082 98.671v25.998c0 7.94 6.448 14.388 14.41 14.388h22.74l-.071-12.297s.643-6.703 0-13.355c29.812 2.58 43.398 1.703 72.076.133" class="quaternary" style="mix-blend-mode:multiply" transform="translate(121 143.5)"/></g><g mask="url(#Y)" style="display:block"><path fill="#F18AA8" d="M272.117 355.848c.133 8.152 0 5.135 0 5.135v8.129c0 7.94 6.265 12.388 14.227 12.388h22.74v-37.839c9.982-5.324 19.058-12.104 26.986-20.032 15.443-15.443 26.503-35.246 31.161-57.39h5.071c10.624 0 19.253-8.628 19.253-19.252v-18.954c0-10.624-8.629-19.253-19.253-19.253h-7.618c-8.307-27.192-26.457-50.092-50.299-64.571 0 0-1.193-25.451 15.226-43.847 1.942-2.176 4.478-3.925 3.846-5.115-.895-1.685-3.429-1.598-6.517-1.705-23.639-.816-46.832 5.344-60.674 33.961l-46.995.115c-31.712 0-60.418 12.85-81.185 33.617-20.79 20.79-33.64 49.496-33.64 81.208 0 41.947 22.488 78.639 56.082 98.671v25.998c0 7.94 6.448 14.388 14.41 14.388h22.74l-.071-12.297s.624-5.328-.019-11.98c30.643 2.652 72.912-1.973 72.912-1.973" class="quaternary"/></g><g clip-path="url(#Z)" mask="url(#aa)" style="display:block"><g fill="#FFC638" style="display:block"><path d="M218.806 199c-21.808 0-35.202 34.043-30.964 64.5 6.818 49 11.091 56.5 32.899 56.5 21.807 0 27.259-22.566 31.534-53.5 5.114-37-11.662-67.5-33.469-67.5z" class="primary"/><path fill-opacity=".5" d="M7.806 85.5c-21.808 0-35.202 34.043-30.964 64.5 6.818 49 11.091 56.5 32.899 56.5 21.807 0 27.259-22.566 31.534-53.5 5.114-37-11.662-67.5-33.469-67.5z" class="primary" style="mix-blend-mode:multiply" transform="translate(211 113.5)"/><path d="M218 44c-28.167 0-51 22.833-51 51s22.833 51 51 51 51-22.833 51-51-22.833-51-51-51z" class="primary"/><path fill-opacity=".5" d="M7-69.5c-28.167 0-51 22.833-51 51s22.833 51 51 51 51-22.833 51-51-22.833-51-51-51z" class="primary" style="mix-blend-mode:multiply" transform="translate(211 113.5)"/></g><g mask="url(#ab)" style="display:block"><path fill="#FFC638" d="M229.556 199c-21.808 0-35.202 34.043-30.964 64.5 6.818 49 11.091 56.5 32.899 56.5 21.807 0 27.259-22.566 31.534-53.5 5.114-37-11.662-67.5-33.469-67.5zm-.806-155c-28.167 0-51 22.833-51 51s22.833 51 51 51 51-22.833 51-51-22.833-51-51-51z" class="primary"/></g></g><g style="display:block"><path fill="none" stroke="#393346" stroke-linecap="round" stroke-linejoin="round" stroke-width="7" d="M182.327 157.994s7.086-3.506 34.586-3.5c27.5.006 37.033 3.5 37.033 3.5" class="tertiary"/><path fill="#393346" d="M291.875 176c-7.525 0-13.625 6.1-13.625 13.625s6.1 13.625 13.625 13.625 13.625-6.1 13.625-13.625S299.4 176 291.875 176z" class="tertiary"/></g></g><g clip-path="url(#ac)" style="display:none"><g fill="none" style="display:none"><path class="quaternary"/><path class="quaternary" style="mix-blend-mode:multiply"/></g><g style="display:none"><path class="quaternary"/><path class="quaternary" style="mix-blend-mode:multiply"/></g><g mask="url(#ad)" style="display:none"><path class="quaternary"/></g><g clip-path="url(#ae)" mask="url(#af)" style="display:none"><g style="display:none"><path class="primary"/><path class="primary" style="mix-blend-mode:multiply"/></g><g mask="url(#ag)" style="display:none"><path class="primary"/></g></g><g mask="url(#ah)" style="display:none"><path class="tertiary"/></g><path fill="none" class="tertiary" style="display:none"/></g></g></svg>